<svg width="20" height="32" viewBox="0 0 20 32" fill="none" xmlns="http://www.w3.org/2000/svg">
<path d="M3.84088 31.3522L19.733 15.9933L3.84088 0.634473C3.40773 0.21723 2.82656 -0.0108538 2.22524 0.000397565C1.62392 0.0116489 1.0517 0.261314 0.634455 0.694468C0.217211 1.12762 -0.0108719 1.70879 0.00037959 2.31011C0.011631 2.91143 0.261295 3.48365 0.69445 3.9009L13.2135 15.9933L0.694451 28.0991C0.261296 28.5163 0.0116314 29.0886 0.000379916 29.6899C-0.0108715 30.2912 0.217211 30.8724 0.634455 31.3055C1.0517 31.7387 1.62392 31.9884 2.22524 31.9996C2.82657 32.0109 3.40773 31.7828 3.84088 31.3655L3.84088 31.3522Z" fill="white"/>
</svg>
